<svg xmlns="http://www.w3.org/2000/svg" width="24" height="24" viewBox="0 0 24 24" fill="none" stroke="currentColor" stroke-width="2" stroke-linecap="round" stroke-linejoin="round" class="lucide lucide-cow"><path d="M12 15h2a6 6 0 0 0 6-6V5.5a3.5 3.5 0 0 0-6.5-1.8"/><path d="M8 15h4"/><path d="M10 19v-4"/><path d="M4 15h4"/><path d="M6 19v-4"/><path d="M10 9c0 .5-.9 3-3 3"/><path d="M14 9c0 .5.9 3 3 3"/><path d="M2 9v6"/><path d="M22 9v6"/><rect x="2" y="3" width="4" height="6" rx="2"/><rect x="18" y="3" width="4" height="6" rx="2"/></svg>
