<svg xmlns="http://www.w3.org/2000/svg" width="24" height="24" viewBox="0 0 24 24" fill="none" stroke="currentColor" stroke-width="2" stroke-linecap="round" stroke-linejoin="round" class="lucide lucide-wheat"><path d="M2 22 16 8"/><path d="M3.47 12.53 5 11l1.53 1.53a3.5 3.5 0 0 1 0 4.94L5 19l-1.53-1.53a3.5 3.5 0 0 1 0-4.94Z"/><path d="M7.47 8.53 9 7l1.53 1.53a3.5 3.5 0 0 1 0 4.94L9 15l-1.53-1.53a3.5 3.5 0 0 1 0-4.94Z"/><path d="M11.47 4.53 13 3l1.53 1.53a3.5 3.5 0 0 1 0 4.94L13 11l-1.53-1.53a3.5 3.5 0 0 1 0-4.94Z"/><path d="M15.47 8.53 17 7l1.53 1.53a3.5 3.5 0 0 1 0 4.94L17 15l-1.53-1.53a3.5 3.5 0 0 1 0-4.94Z"/><path d="M19.47 12.53 21 11l1.53 1.53a3.5 3.5 0 0 1 0 4.94L21 19l-1.53-1.53a3.5 3.5 0 0 1 0-4.94Z"/></svg>
