<svg xmlns="http://www.w3.org/2000/svg" viewBox="0 0 954 203.67"><path d="M954,92.14V75.36H933.16V49.28l-.7.21-19.57,6-.38.12V75.36H881.62v-11c0-5.13,1.15-9,3.41-11.67s5.45-3.9,9.54-3.9a22.4,22.4,0,0,1,9.06,2.06l.76.35V33.52l-.36-.13a35.22,35.22,0,0,0-11.57-1.55,33.89,33.89,0,0,0-16.41,3.94,28.16,28.16,0,0,0-11.27,11.14,33.24,33.24,0,0,0-4,16.33V75.36H846.29V92.14H860.8v70.68h20.82V92.14h30.89v44.91c0,18.5,8.72,27.88,25.93,27.88a43.2,43.2,0,0,0,8.85-1,24.57,24.57,0,0,0,6.44-2l.27-.16V144.81l-.85.56a14.46,14.46,0,0,1-4.19,1.82,15.69,15.69,0,0,1-4.11.7c-4,0-7-1.08-8.86-3.23s-2.82-5.94-2.82-11.23V92.14ZM799.78,147.9c-7.56,0-13.52-2.51-17.72-7.45s-6.37-12-6.37-21c0-9.28,2.15-16.53,6.37-21.58s10.11-7.57,17.55-7.57c7.22,0,13,2.43,17.09,7.23s6.24,12,6.24,21.41-2,16.79-5.87,21.67-9.69,7.31-17.29,7.31m.93-74.65c-14.43,0-25.88,4.23-34.05,12.56s-12.3,19.87-12.3,34.29c0,13.69,4,24.71,12,32.73s18.81,12.09,32.23,12.09c14,0,25.2-4.28,33.37-12.73s12.29-19.87,12.29-33.95c0-13.9-3.88-25-11.53-33s-18.44-12-32-12m-79.93,0c-9.81,0-17.92,2.51-24.12,7.46a23.78,23.78,0,0,0-9.4,19.4,27.07,27.07,0,0,0,2,10.85,21.83,21.83,0,0,0,6.22,8.13c2.76,2.27,7,4.65,12.66,7.08a95,95,0,0,1,10.53,4.9,14.72,14.72,0,0,1,4.63,3.81,8.5,8.5,0,0,1,1.29,5c0,5.87-4.4,8.73-13.45,8.73a37.08,37.08,0,0,1-11.39-2.08,43,43,0,0,1-11.66-5.91l-.86-.62v20l.32.14a51.31,51.31,0,0,0,11,3.41,58.77,58.77,0,0,0,11.79,1.37c10.64,0,19.22-2.52,25.47-7.5a24.24,24.24,0,0,0,9.49-19.87,22.8,22.8,0,0,0-5.11-15c-3.36-4.05-9.19-7.76-17.33-11-6.49-2.6-10.64-4.76-12.35-6.42a9,9,0,0,1-2.49-6.74,7.5,7.5,0,0,1,3.16-6.23c2.14-1.66,5.12-2.5,8.86-2.5a36.41,36.41,0,0,1,10.55,1.62,33.63,33.63,0,0,1,9.21,4.27l.86.58v-19l-.33-.14A45.59,45.59,0,0,0,731,74.31a57.55,57.55,0,0,0-10.26-1.06M633,147.9c-7.56,0-13.52-2.51-17.72-7.45s-6.36-12-6.36-21c0-9.28,2.14-16.53,6.36-21.58s10.11-7.57,17.55-7.57c7.22,0,13,2.43,17.09,7.23s6.24,12,6.24,21.41-2,16.79-5.88,21.67-9.68,7.31-17.28,7.31m.93-74.65c-14.43,0-25.88,4.23-34,12.56s-12.3,19.87-12.3,34.29c0,13.7,4,24.71,12,32.73s18.81,12.09,32.23,12.09c14,0,25.2-4.28,33.37-12.73s12.3-19.87,12.3-33.95c0-13.9-3.89-25-11.55-33s-18.43-12-32-12m-78,17.25V75.36H535.36v87.45h20.58V118.08c0-7.61,1.72-13.86,5.13-18.58a15.73,15.73,0,0,1,13.3-7,24.45,24.45,0,0,1,6.19.91,15.71,15.71,0,0,1,4.79,1.94l.87.63V75.21l-.34-.14a23.26,23.26,0,0,0-21.81,3.7c-3.48,2.88-6,6.82-7.91,11.73ZM498.52,73.25c-9.43,0-17.85,2-25,6a40.39,40.39,0,0,0-16.5,17,54,54,0,0,0-5.67,25.14,46.37,46.37,0,0,0,5.51,22.53,38.74,38.74,0,0,0,15.39,15.56,45.8,45.8,0,0,0,22.49,5.47c9.78,0,18.13-2,24.82-5.81l.27-.16V140.11l-.87.64A38.8,38.8,0,0,1,508.89,146,30.4,30.4,0,0,1,499,147.9c-8.07,0-14.55-2.53-19.25-7.51s-7.11-12-7.11-20.8,2.49-16,7.41-21.34,11.39-8,19.29-8c6.76,0,13.35,2.29,19.59,6.81l.86.63V77.86l-.28-.15A33.64,33.64,0,0,0,510,74.49a56.83,56.83,0,0,0-11.5-1.24m-61.35,2.11H416.6v87.45h20.57V75.36ZM427.1,38.1a12.42,12.42,0,0,0-8.77,3.44,11.32,11.32,0,0,0-3.67,8.58,11,11,0,0,0,3.63,8.41,12.55,12.55,0,0,0,8.81,3.35,12.69,12.69,0,0,0,8.84-3.35,11,11,0,0,0,3.68-8.41A11.58,11.58,0,0,0,436,41.63a12.27,12.27,0,0,0-8.94-3.53M375.77,68.91v93.9h21v-122H367.7l-36.93,90.64L294.93,40.78H264.68v122h19.73V68.9h.68l37.85,93.91h14.89l37.26-93.9Z" fill="#706d6e"/><path d="M96.78,96.78H0V0H96.78Z" fill="#f1511b"/><path d="M203.63,96.78H106.86V0h96.77V96.78Z" fill="#80cc28"/><path d="M96.78,203.67H0V106.89H96.78Z" fill="#00adef"/><path d="M203.63,203.67H106.86V106.89h96.77v96.78Z" fill="#fbbc09"/></svg>