<?xml version="1.0" encoding="UTF-8"?>
<!DOCTYPE svg PUBLIC "-//W3C//DTD SVG 1.1//EN" "http://www.w3.org/Graphics/SVG/1.1/DTD/svg11.dtd">
<!-- Creator: CorelDRAW 2020 (64 Bit) -->
<svg xmlns="http://www.w3.org/2000/svg" xml:space="preserve" width="25.3998mm" height="14.7318mm" version="1.1" style="shape-rendering:geometricPrecision; text-rendering:geometricPrecision; image-rendering:optimizeQuality; fill-rule:evenodd; clip-rule:evenodd"
viewBox="0 0 2539.98 1473.18"
 xmlns:xlink="http://www.w3.org/1999/xlink"
 xmlns:xodm="http://www.corel.com/coreldraw/odm/2003">
 <defs>
  <style type="text/css">
   <![CDATA[
    .fil0 {fill:white}
    .fil1 {fill:white;fill-rule:nonzero}
   ]]>
  </style>
 </defs>
 <g id="Camada_x0020_1">
  <metadata id="CorelCorpID_0Corel-Layer"/>
  <g id="_1930559580640">
   <g id="_1984880641776">
    <polygon class="fil0" points="645.67,42.93 777.96,42.93 1055.92,727.8 924.74,727.8 "/>
    <polygon class="fil0" points="1197.11,42.93 1329.43,42.93 1607.38,727.8 1476.18,727.8 "/>
    <polygon class="fil0" points="1329.43,42.93 1197.11,42.93 1053.69,396.33 1119.42,558.3 "/>
    <polygon class="fil0" points="1887.55,42.93 1755.25,42.93 1608.5,404.56 1674.22,566.51 "/>
    <polygon class="fil0" points="2445.69,42.93 2313.37,42.93 2035.41,727.8 2166.62,727.8 "/>
    <path class="fil1" d="M707.47 1430.26c-9.47,0 -18.53,-0.79 -27.2,-2.37 -8.64,-1.55 -16.51,-3.84 -23.52,-6.82l3.71 -28.54c8.63,3.69 17.08,6.48 25.39,8.42 8.29,1.88 16.16,2.85 23.51,2.85 9.42,0 16.51,-1.66 21.32,-4.97 4.81,-3.34 7.22,-8.23 7.22,-14.65 0,-8.38 -4.77,-14.76 -14.31,-19.12l-25.98 -12.34c-11.67,-5.5 -20.65,-12.28 -26.95,-20.34 -6.3,-8.05 -9.46,-17.33 -9.46,-27.82 0,-14.57 4.63,-25.88 13.91,-33.85 9.3,-7.98 22.41,-11.99 39.41,-11.99 10.66,0 20.46,1.77 29.44,5.25 8.99,3.48 17.15,8.75 24.62,15.8l-19.41 21.37c-6.03,-5.33 -11.88,-9.34 -17.57,-12.03 -5.64,-2.73 -11.31,-4.05 -16.95,-4.09 -7.39,0.04 -13.08,1.7 -17.17,5.02 -4.05,3.33 -6.09,8.18 -6.09,14.52 0,4.36 1.39,8.22 4.16,11.54 2.77,3.34 6.78,6.34 12.02,9.02l23.38 11.63c12.01,5.94 21.18,12.8 27.56,20.61 6.38,7.78 9.59,16.77 9.59,26.94 0,14.97 -5.14,26.34 -15.45,34.21 -10.3,7.83 -25.37,11.75 -45.18,11.75zm146.75 0c-41.82,0 -62.77,-28.22 -62.77,-84.61 0,-57.94 20.95,-86.93 62.77,-86.93 41.83,0 62.71,28.99 62.71,86.93 0,56.39 -20.88,84.61 -62.71,84.61zm0 -26.36c22.1,-0.06 33.12,-19.47 33.12,-58.25 0.08,-40.42 -10.96,-60.59 -33.12,-60.63 -22.1,0.08 -33.11,20.29 -33.11,60.63 -0.09,38.86 10.93,58.25 33.11,58.25zm88.08 23.99l0 -166.79 28.35 0 0 166.79 -28.35 0zm0 0l0 -26.06 112.8 0.12 0 25.94 -112.8 0zm193.41 2.37c-36.5,0 -54.76,-18.65 -54.76,-55.95l0 -113.21 28.31 0 0 113.21c0,9.64 2.19,16.94 6.55,21.87 4.32,4.93 11.1,7.41 20.38,7.41 17.92,-0.08 26.9,-9.86 26.9,-29.28l0 -113.21 28.29 0 0 113.21c0,18.66 -4.72,32.66 -14.23,41.96 -9.46,9.29 -23.29,13.99 -41.44,13.99zm127.34 -2.37l-0.13 -166.79 28.31 0 0.13 166.79 -28.31 0zm-48.16 -140.86l0 -25.93 124.55 0 0 26.06 -124.55 -0.13zm189.02 140.86l-0.13 -166.79 28.31 0 0.13 166.79 -28.31 0zm-37.7 0l0 -25.75 103.86 0.13 0 25.62 -103.86 0zm0 -141.17l0 -25.62 103.86 0 0 25.62 -103.86 0zm192.91 143.54c-41.83,0 -62.75,-28.22 -62.75,-84.61 0,-57.94 20.92,-86.93 62.75,-86.93 41.82,0 62.7,28.99 62.7,86.93 0,56.39 -20.88,84.61 -62.7,84.61zm0 -26.36c22.09,-0.06 33.11,-19.47 33.11,-58.25 0.09,-40.42 -10.93,-60.59 -33.11,-60.63 -22.1,0.08 -33.12,20.29 -33.12,60.63 -0.08,38.86 10.93,58.25 33.12,58.25zm154.73 23.99l-36.77 -129 -12.11 0 0 -37.79 21.38 0 36.77 128.97 7.18 0 0 37.82 -16.45 0zm-68.04 0l0 -166.79 27.62 0 0 166.79 -27.62 0zm80.96 0l0 -166.79 27.58 0 0 166.79 -27.58 0zm108.54 2.37c-9.46,0 -18.53,-0.79 -27.2,-2.37 -8.64,-1.55 -16.51,-3.84 -23.52,-6.82l3.71 -28.54c8.63,3.69 17.09,6.48 25.4,8.42 8.29,1.88 16.16,2.85 23.5,2.85 9.42,0 16.52,-1.66 21.32,-4.97 4.81,-3.34 7.22,-8.23 7.22,-14.65 0,-8.38 -4.76,-14.76 -14.31,-19.12l-25.98 -12.34c-11.67,-5.5 -20.65,-12.28 -26.95,-20.34 -6.29,-8.05 -9.46,-17.33 -9.46,-27.82 0,-14.57 4.64,-25.88 13.91,-33.85 9.3,-7.98 22.41,-11.99 39.41,-11.99 10.66,0 20.44,1.77 29.43,5.25 8.98,3.48 17.16,8.75 24.63,15.8l-19.41 21.37c-6.02,-5.33 -11.88,-9.34 -17.56,-12.03 -5.65,-2.73 -11.32,-4.05 -16.96,-4.09 -7.39,0.04 -13.08,1.7 -17.17,5.02 -4.05,3.33 -6.08,8.18 -6.08,14.52 0,4.36 1.38,8.22 4.15,11.54 2.77,3.34 6.78,6.34 12.03,9.02l23.37 11.63c12.01,5.94 21.18,12.8 27.56,20.61 6.38,7.78 9.59,16.77 9.59,26.94 0,14.97 -5.14,26.34 -15.45,34.21 -10.3,7.83 -25.37,11.75 -45.18,11.75z"/>
    <polygon class="fil0" points="1955.35,606.15 2161.83,606.15 2161.83,727.8 1905.66,727.8 "/>
    <polygon class="fil0" points="94.3,42.93 226.62,42.93 504.58,727.8 373.37,727.8 "/>
    <polygon class="fil0" points="584.64,606.15 378.16,606.15 378.16,727.8 634.33,727.8 "/>
   </g>
  </g>
 </g>
</svg>
