<?xml version="1.0" encoding="UTF-8"?>
<!DOCTYPE svg PUBLIC "-//W3C//DTD SVG 1.1//EN" "http://www.w3.org/Graphics/SVG/1.1/DTD/svg11.dtd">
<!-- Creator: CorelDRAW 2020 (64 Bit) -->
<svg xmlns="http://www.w3.org/2000/svg" xml:space="preserve" width="28.7866mm" height="16.9332mm" version="1.1" style="shape-rendering:geometricPrecision; text-rendering:geometricPrecision; image-rendering:optimizeQuality; fill-rule:evenodd; clip-rule:evenodd"
viewBox="0 0 2878.66 1693.32"
 xmlns:xlink="http://www.w3.org/1999/xlink"
 xmlns:xodm="http://www.corel.com/coreldraw/odm/2003">
 <defs>
  <style type="text/css">
   <![CDATA[
    .fil2 {fill:#171717}
    .fil1 {fill:#171717;fill-rule:nonzero}
    .fil0 {fill:#171717}
   ]]>
  </style>
 </defs>
 <g id="Camada_x0020_1">
  <metadata id="CorelCorpID_0Corel-Layer"/>
  <polygon class="fil0" points="705.36,31.19 860.9,31.19 1187.66,836.33 1033.43,836.33 "/>
  <polygon class="fil0" points="1353.66,31.19 1509.2,31.19 1835.96,836.33 1681.73,836.33 "/>
  <polygon class="fil0" points="1509.2,31.19 1353.66,31.19 1185.05,446.64 1262.33,637.06 "/>
  <polygon class="fil0" points="2165.33,31.19 2009.79,31.19 1837.27,456.3 1914.53,646.7 "/>
  <polygon class="fil0" points="2821.47,31.19 2665.93,31.19 2339.17,836.33 2493.4,836.33 "/>
  <path class="fil1" d="M778.02 1662.13c-11.13,0 -21.78,-0.94 -31.97,-2.78 -10.18,-1.83 -19.42,-4.52 -27.67,-8.01l4.39 -33.56c10.13,4.33 20.08,7.63 29.84,9.9 9.76,2.21 18.99,3.34 27.62,3.34 11.08,0 19.42,-1.93 25.08,-5.84 5.65,-3.92 8.48,-9.67 8.48,-17.21 0,-9.85 -5.61,-17.35 -16.82,-22.48l-30.55 -14.52c-13.72,-6.46 -24.28,-14.43 -31.68,-23.9 -7.4,-9.48 -11.12,-20.37 -11.12,-32.71 0,-17.12 5.46,-30.41 16.35,-39.79 10.94,-9.38 26.35,-14.09 46.34,-14.09 12.54,0 24.04,2.07 34.6,6.17 10.56,4.1 20.18,10.28 28.94,18.57l-22.81 25.13c-7.07,-6.27 -13.95,-10.98 -20.65,-14.14 -6.65,-3.21 -13.29,-4.76 -19.94,-4.81 -8.67,0.05 -15.37,1.98 -20.17,5.89 -4.76,3.91 -7.17,9.62 -7.17,17.07 0,5.13 1.65,9.66 4.9,13.57 3.26,3.91 7.97,7.45 14.15,10.61l27.48 13.67c14.09,6.97 24.89,15.03 32.38,24.23 7.5,9.14 11.27,19.7 11.27,31.67 0,17.59 -6.03,30.97 -18.15,40.21 -12.11,9.2 -29.84,13.81 -53.12,13.81zm172.52 0c-49.17,0 -73.77,-33.18 -73.77,-99.46 0,-68.11 24.6,-102.19 73.77,-102.19 49.16,0 73.72,34.08 73.72,102.19 0,66.28 -24.56,99.46 -73.72,99.46zm0 -30.97c25.97,-0.09 38.94,-22.91 38.94,-68.49 0.09,-47.51 -12.87,-71.22 -38.94,-71.27 -25.97,0.09 -38.94,23.85 -38.94,71.27 -0.09,45.68 12.87,68.49 38.94,68.49zm103.56 28.19l0 -196.09 33.33 0 0 196.09 -33.33 0zm0 0l0 -30.64 132.6 0.15 0 30.49 -132.6 0zm227.35 2.78c-42.9,0 -64.35,-21.92 -64.35,-65.75l0 -133.12 33.28 0 0 133.12c0,11.31 2.55,19.89 7.69,25.69 5.09,5.79 13.05,8.72 23.95,8.72 21.07,-0.1 31.62,-11.6 31.62,-34.41l0 -133.12 33.28 0 0 133.12c0,21.92 -5.56,38.37 -16.73,49.3 -11.12,10.94 -27.39,16.45 -48.74,16.45zm149.71 -2.78l-0.14 -196.09 33.28 0 0.14 196.09 -33.28 0zm-56.62 -165.59l0 -30.5 146.42 0 0 30.64 -146.42 -0.14zm222.21 165.59l-0.14 -196.09 33.28 0 0.14 196.09 -33.28 0zm-44.31 0l0 -30.26 122.09 0.14 0 30.12 -122.09 0zm0 -165.97l0 -30.12 122.09 0 0 30.12 -122.09 0zm226.79 168.75c-49.17,0 -73.78,-33.18 -73.78,-99.46 0,-68.11 24.61,-102.19 73.78,-102.19 49.16,0 73.72,34.08 73.72,102.19 0,66.28 -24.56,99.46 -73.72,99.46zm0 -30.97c25.97,-0.09 38.93,-22.91 38.93,-68.49 0.1,-47.51 -12.87,-71.22 -38.93,-71.27 -25.98,0.09 -38.94,23.85 -38.94,71.27 -0.09,45.68 12.87,68.49 38.94,68.49zm181.9 28.19l-43.22 -151.64 -14.24 0 0 -44.45 25.13 0 43.22 151.64 8.44 0 0 44.45 -19.33 0zm-79.99 0l0 -196.09 32.48 0 0 196.09 -32.48 0zm95.17 0l0 -196.09 32.43 0 0 196.09 -32.43 0zm127.6 2.78c-11.12,0 -21.77,-0.94 -31.96,-2.78 -10.18,-1.83 -19.42,-4.52 -27.67,-8.01l4.39 -33.56c10.13,4.33 20.08,7.63 29.84,9.9 9.75,2.21 18.99,3.34 27.62,3.34 11.08,0 19.42,-1.93 25.08,-5.84 5.65,-3.92 8.48,-9.67 8.48,-17.21 0,-9.85 -5.61,-17.35 -16.83,-22.48l-30.54 -14.52c-13.72,-6.46 -24.28,-14.43 -31.68,-23.9 -7.4,-9.48 -11.12,-20.37 -11.12,-32.71 0,-17.12 5.46,-30.41 16.35,-39.79 10.94,-9.38 26.35,-14.09 46.34,-14.09 12.54,0 24.04,2.07 34.6,6.17 10.56,4.1 20.18,10.28 28.94,18.57l-22.81 25.13c-7.07,-6.27 -13.95,-10.98 -20.65,-14.14 -6.65,-3.21 -13.29,-4.76 -19.94,-4.81 -8.67,0.05 -15.37,1.98 -20.17,5.89 -4.76,3.91 -7.17,9.62 -7.17,17.07 0,5.13 1.65,9.66 4.9,13.57 3.26,3.91 7.97,7.45 14.14,10.61l27.49 13.67c14.09,6.97 24.89,15.03 32.38,24.23 7.49,9.14 11.27,19.7 11.27,31.67 0,17.59 -6.04,30.97 -18.15,40.21 -12.11,9.2 -29.84,13.81 -53.13,13.81z"/>
  <polygon class="fil2" points="2245.03,693.31 2487.78,693.31 2487.78,836.33 2186.62,836.33 "/>
  <polygon class="fil0" points="57.19,31.19 212.73,31.19 539.49,836.33 385.26,836.33 "/>
  <polygon class="fil2" points="633.63,693.31 390.88,693.31 390.88,836.33 692.04,836.33 "/>
 </g>
</svg>
