<?xml version="1.0" encoding="UTF-8"?>
<!DOCTYPE svg PUBLIC "-//W3C//DTD SVG 1.1//EN" "http://www.w3.org/Graphics/SVG/1.1/DTD/svg11.dtd">
<!-- Creator: CorelDRAW 2020 (64 Bit) -->
<svg xmlns="http://www.w3.org/2000/svg" xml:space="preserve" width="22.0132mm" height="3.3866mm" version="1.1" style="shape-rendering:geometricPrecision; text-rendering:geometricPrecision; image-rendering:optimizeQuality; fill-rule:evenodd; clip-rule:evenodd"
viewBox="0 0 2201.32 338.66"
 xmlns:xlink="http://www.w3.org/1999/xlink"
 xmlns:xodm="http://www.corel.com/coreldraw/odm/2003">
 <defs>
  <style type="text/css">
   <![CDATA[
    .fil0 {fill:black;fill-rule:nonzero}
   ]]>
  </style>
 </defs>
 <g id="Camada_x0020_1">
  <metadata id="CorelCorpID_0Corel-Layer"/>
  <path class="fil0" d="M2192.85 31.19l-3.65 0 0 -15.36 -0.12 0 -6.91 15.36 -2.19 0 -6.68 -15.36 -0.13 0 0 15.36 -3.48 0 0 -21.45 4.45 0 7.04 15.93 0.12 0 7.17 -15.93 4.38 0 0 21.45zm-25.8 -18.19l-6.69 0 0 18.19 -3.71 0 0 -18.19 -6.58 0 0 -3.26 16.98 0 0 3.26z"/>
  <path class="fil0" d="M137.32 61.65l-52.67 0 0 161.66 -23.71 0 0 -161.66 -52.48 0 0 -20.96 128.86 0 0 20.96zm72.36 54.13c-3.86,-2.74 -9.17,-4.11 -15.93,-4.11 -8.94,0 -16.34,4.19 -22.14,12.56 -5.83,8.37 -8.73,19.36 -8.73,33.04l0 66.04 -23.1 0 0 -130.39 23.1 0 0 26.52 0.48 0c6.6,-19.19 17.99,-28.77 34.17,-28.77 5.27,0 9.34,0.6 12.15,1.77l0 23.34zm25.35 -13.8c12.96,-8.09 27.93,-12.12 44.92,-12.12 31.43,0 47.16,16.5 47.16,49.5l0 83.95 -22.86 0 0 -20.16 -0.6 0c-9.06,15.49 -22.38,23.22 -39.96,23.22 -12.68,0 -22.74,-3.42 -30.18,-10.26 -7.49,-6.84 -11.23,-16.06 -11.23,-27.69 0,-24.39 14.45,-38.55 43.3,-42.58l38.67 -5.43c0,-21.29 -8.81,-31.95 -26.44,-31.95 -15.61,0 -29.9,5.27 -42.78,15.81l0 -22.29zm38.68 60.04c-10.71,1.41 -18.07,4.06 -22.09,8.01 -4.07,3.9 -6.08,9.41 -6.08,16.5 0,6.2 2.17,11.27 6.6,15.21 4.39,3.94 10.22,5.88 17.42,5.88 10.06,0 18.36,-3.55 24.87,-10.59 6.56,-7.08 9.82,-15.97 9.82,-26.64l0 -12.52 -30.54 4.15zm201.94 61.29l-22.98 0 0 -74.17c0,-26.8 -9.78,-40.2 -29.38,-40.2 -10.14,0 -18.47,3.78 -24.99,11.31 -6.52,7.56 -9.78,17.1 -9.78,28.65l0 74.41 -23.1 0 0 -130.39 23.1 0 0 21.57 0.49 0c9.82,-16.42 24.06,-24.63 42.78,-24.63 14.32,0 25.19,4.55 32.67,13.73 7.45,9.13 11.19,22.49 11.19,40.04l0 79.68zm31.23 -28.17c11.63,8.41 24.19,12.6 37.63,12.6 17.99,0 27,-5.88 27,-17.67 0,-5.03 -1.97,-9.18 -5.92,-12.44 -3.94,-3.26 -11.91,-7.16 -23.94,-11.63 -14.45,-5.79 -23.82,-11.55 -28.17,-17.26 -4.31,-5.72 -6.48,-12.6 -6.48,-20.69 0,-11.55 4.91,-20.8 14.69,-27.76 9.78,-6.97 21.81,-10.43 36.14,-10.43 11.06,0 21.37,1.89 30.87,5.76l0 22.29c-9.74,-6.27 -20.77,-9.45 -33.13,-9.45 -7.4,0 -13.4,1.61 -18.02,4.87 -4.63,3.21 -6.97,7.44 -6.97,12.71 0,5.19 1.65,9.22 4.99,12.16 3.34,2.89 10.79,6.64 22.26,11.18 14.53,5.44 24.35,11.03 29.46,16.86 5.11,5.84 7.68,13 7.68,21.58 0,11.95 -4.91,21.36 -14.69,28.25 -9.77,6.88 -22.45,10.3 -38.03,10.3 -13.52,0 -25.31,-2.54 -35.37,-7.65l0 -23.58zm142.18 9.78l0 78.39 -23.1 0 0 -190.39 23.1 0 0 22.5 0.48 0c10.22,-17.07 25.15,-25.56 44.79,-25.56 16.66,0 29.74,5.84 39.2,17.51 9.46,11.67 14.21,27.32 14.21,46.96 0,21.69 -5.36,39.12 -16.1,52.28 -10.71,13.2 -25.15,19.76 -43.3,19.76 -16.74,0 -29.7,-7.16 -38.8,-21.45l-0.48 0zm-0.12 -35.38c0,10.63 3.42,19.56 10.26,26.85 6.84,7.24 15.41,10.9 25.72,10.9 12.23,0 21.85,-4.74 28.73,-14.16 6.92,-9.42 10.38,-22.5 10.38,-39.16 0,-14.04 -3.22,-25.07 -9.65,-33.04 -6.44,-8.01 -15.26,-11.99 -26.4,-11.99 -11.39,0 -20.77,4.06 -28.09,12.15 -7.29,8.09 -10.95,18.47 -10.95,31.11l0 17.34zm122.5 -10.02c0,-21.53 6,-38.55 18.03,-50.98 12.03,-12.48 28.33,-18.68 48.94,-18.68 19.55,0 34.93,6 46.03,17.95 11.11,11.99 16.7,28.57 16.7,49.7 0,20.61 -5.95,37.23 -17.82,49.86 -11.87,12.68 -27.77,19 -47.73,19 -19.52,0 -35.05,-6.12 -46.72,-18.39 -11.63,-12.28 -17.43,-28.41 -17.43,-48.46zm23.58 -0.72c0,15.01 3.79,26.84 11.39,35.49 7.57,8.66 17.75,13 30.59,13 13.2,0 23.26,-4.22 30.18,-12.67 6.92,-8.45 10.38,-20.61 10.38,-36.38 0,-15.9 -3.46,-28.09 -10.38,-36.54 -6.92,-8.5 -16.98,-12.76 -30.18,-12.76 -12.96,0 -23.22,4.47 -30.71,13.32 -7.52,8.89 -11.27,21.09 -11.27,36.54zm208.55 -43.02c-3.87,-2.74 -9.18,-4.11 -15.94,-4.11 -8.94,0 -16.34,4.19 -22.14,12.56 -5.83,8.37 -8.73,19.36 -8.73,33.04l0 66.04 -23.1 0 0 -130.39 23.1 0 0 26.52 0.48 0c6.6,-19.19 17.99,-28.77 34.17,-28.77 5.27,0 9.34,0.6 12.16,1.77l0 23.34zm92.43 106.24c-5.03,2.74 -11.83,4.11 -20.36,4.11 -23.38,0 -35.05,-12.92 -35.05,-38.8l0 -75.33 -22.38 0 0 -19.08 22.38 0 0 -31.39 23.02 -7.28 0 38.67 32.39 0 0 19.08 -32.39 0 0 71.23c0,8.57 1.45,14.69 4.34,18.39 2.9,3.7 7.73,5.55 14.49,5.55 5.19,0 9.74,-1.49 13.56,-4.38l0 19.23zm30.43 -120.04c12.96,-8.09 27.93,-12.12 44.91,-12.12 31.43,0 47.17,16.5 47.17,49.5l0 83.95 -22.86 0 0 -20.16 -0.61 0c-9.05,15.49 -22.37,23.22 -39.96,23.22 -12.68,0 -22.74,-3.42 -30.18,-10.26 -7.49,-6.84 -11.23,-16.06 -11.23,-27.69 0,-24.39 14.45,-38.55 43.3,-42.58l38.68 -5.43c0,-21.29 -8.82,-31.95 -26.44,-31.95 -15.62,0 -29.9,5.27 -42.78,15.81l0 -22.29zm38.67 60.04c-10.7,1.41 -18.07,4.06 -22.09,8.01 -4.07,3.9 -6.08,9.41 -6.08,16.5 0,6.2 2.17,11.27 6.6,15.21 4.39,3.94 10.22,5.88 17.43,5.88 10.06,0 18.35,-3.55 24.87,-10.59 6.56,-7.08 9.82,-15.97 9.82,-26.64l0 -12.52 -30.55 4.15zm204.88 61.29l-23.1 0 0 -21.69 -0.48 0c-9.5,16.5 -24.27,24.75 -44.31,24.75 -16.5,0 -29.66,-5.88 -39.4,-17.63 -9.74,-11.75 -14.61,-27.61 -14.61,-47.57 0,-21.53 5.52,-38.79 16.5,-51.83 10.99,-13 25.4,-19.48 43.14,-19.48 17.79,0 30.67,6.89 38.68,20.73l0.48 0 0 -80.29 23.1 0 0 193.01zm-22.98 -77.59c0,-10.46 -3.46,-19.19 -10.3,-26.24 -6.88,-7 -15.37,-10.54 -25.43,-10.54 -12.24,0 -21.94,4.59 -29.02,13.72 -7.04,9.18 -10.58,21.65 -10.58,37.47 0,14.53 3.38,26.04 10.18,34.49 6.8,8.45 15.85,12.67 27.2,12.67 11.15,0 20.25,-4.14 27.33,-12.47 7.08,-8.29 10.62,-18.59 10.62,-30.95l0 -18.15zm55.54 13.8c0,-21.53 6,-38.55 18.03,-50.98 12.03,-12.48 28.33,-18.68 48.93,-18.68 19.56,0 34.94,6 46.04,17.95 11.11,11.99 16.7,28.57 16.7,49.7 0,20.61 -5.95,37.23 -17.82,49.86 -11.88,12.68 -27.77,19 -47.73,19 -19.52,0 -35.05,-6.12 -46.73,-18.39 -11.63,-12.28 -17.42,-28.41 -17.42,-48.46zm23.58 -0.72c0,15.01 3.79,26.84 11.39,35.49 7.57,8.66 17.75,13 30.59,13 13.2,0 23.26,-4.22 30.18,-12.67 6.92,-8.45 10.38,-20.61 10.38,-36.38 0,-15.9 -3.46,-28.09 -10.38,-36.54 -6.92,-8.5 -16.98,-12.76 -30.18,-12.76 -12.96,0 -23.22,4.47 -30.71,13.32 -7.53,8.89 -11.27,21.09 -11.27,36.54zm208.54 -43.02c-3.86,-2.74 -9.17,-4.11 -15.93,-4.11 -8.94,0 -16.34,4.19 -22.14,12.56 -5.83,8.37 -8.73,19.36 -8.73,33.04l0 66.04 -23.1 0 0 -130.39 23.1 0 0 26.52 0.48 0c6.6,-19.19 17.99,-28.77 34.17,-28.77 5.27,0 9.34,0.6 12.15,1.77l0 23.34zm61.66 43.87l0 63.66 -38.92 0 0 -182.62 62.86 0c45.44,0 68.13,19.23 68.13,57.75 0,18.71 -6.84,33.72 -20.56,44.99 -13.72,11.27 -30.87,16.7 -51.47,16.22l-20.04 0zm0 -88.78l0 58.96 16.86 0c22.9,0 34.33,-9.95 34.33,-29.87 0,-19.39 -11.35,-29.09 -33.97,-29.09l-17.22 0zm270.47 152.44l-44.83 0 -28.65 -47.53c-5.88,-9.82 -10.71,-16.13 -14.49,-18.95 -3.78,-2.86 -7.77,-4.27 -12.03,-4.27l-11.79 0 0 70.75 -38.92 0 0 -182.62 64.03 0c43.46,0 65.19,16.49 65.19,49.5 0,12.43 -3.62,23.09 -10.9,31.95 -7.25,8.89 -17.27,15.13 -29.98,18.75l0 0.49c8.41,2.81 17.7,12.11 27.92,27.8l34.45 54.13zm-111.79 -153.05l0 52.6 19.11 0c9.1,0 16.46,-2.65 21.98,-7.96 5.55,-5.32 8.33,-11.92 8.33,-19.89 0,-16.5 -9.86,-24.75 -29.62,-24.75l-19.8 0zm115.54 64.15c0,-28.61 8.37,-51.91 25.07,-69.86 16.7,-17.95 38.75,-26.92 66.2,-26.92 26.08,0 47.08,8.69 63.02,26.03 15.9,17.39 23.86,39.72 23.86,66.97 0,28.45 -8.29,51.55 -24.83,69.26 -16.54,17.75 -38.19,26.6 -64.99,26.6 -26.2,0 -47.45,-8.57 -63.79,-25.76 -16.37,-17.18 -24.54,-39.27 -24.54,-66.32zm40.92 -2.13c0,17.79 4.27,32.27 12.84,43.58 8.57,11.27 20.32,16.91 35.25,16.91 15.26,0 27.13,-5.4 35.62,-16.22 8.49,-10.79 12.72,-25.32 12.72,-43.55 0,-19.03 -4.11,-34.04 -12.36,-45.11 -8.25,-11.03 -19.88,-16.54 -34.89,-16.54 -15.25,0 -27.28,5.64 -36.06,16.98 -8.73,11.31 -13.12,25.96 -13.12,43.95z"/>
  <path class="fil0" d="M1658.16 314.55c2.15,1.89 5.02,3.42 8.63,4.63 3.59,1.21 7.01,1.81 10.25,1.81 9.86,0 14.78,-3.5 14.78,-10.52 0,-1.96 -0.52,-3.73 -1.59,-5.31 -1.05,-1.57 -2.51,-2.95 -4.35,-4.18 -1.85,-1.2 -5.31,-3.06 -10.39,-5.57 -7.05,-3.5 -11.69,-6.77 -13.92,-9.77 -2.25,-3.02 -3.36,-6.46 -3.36,-10.33 0,-5.83 2.34,-10.45 7.03,-13.87 4.69,-3.42 10.6,-5.13 17.74,-5.13 6.98,0 12.11,0.84 15.38,2.54l0 9.88c-4.25,-2.92 -9.59,-4.39 -16.06,-4.39 -4.3,0 -7.8,0.89 -10.51,2.7 -2.7,1.8 -4.06,4.29 -4.06,7.5 0,2.85 0.95,5.16 2.82,6.95 1.87,1.78 5.94,4.21 12.2,7.29 6.89,3.3 11.72,6.6 14.46,9.9 2.76,3.3 4.14,7 4.14,11.11 0,6.17 -2.23,10.9 -6.72,14.2 -4.48,3.3 -10.69,4.94 -18.65,4.94 -2.77,0 -6.02,-0.38 -9.72,-1.16 -3.7,-0.76 -6.41,-1.72 -8.1,-2.88l0 -10.34zm52.35 -21.09c0,-11.33 3.07,-20.36 9.21,-27.08 6.14,-6.71 14.45,-10.07 24.95,-10.07 9.77,0 17.63,3.29 23.58,9.84 5.96,6.56 8.95,15.11 8.95,25.64 0,11.39 -3.07,20.43 -9.17,27.12 -6.11,6.68 -14.27,10.02 -24.49,10.02 -9.99,0 -17.98,-3.28 -24,-9.85 -6.03,-6.55 -9.03,-15.09 -9.03,-25.62zm9.52 -0.73c0,8.5 2.17,15.31 6.52,20.44 4.34,5.12 10,7.69 16.99,7.69 7.49,0 13.39,-2.46 17.66,-7.36 4.28,-4.93 6.41,-11.8 6.41,-20.63 0,-9.07 -2.09,-16.07 -6.27,-20.99 -4.19,-4.94 -9.92,-7.41 -17.22,-7.41 -7.16,0 -12.97,2.61 -17.41,7.81 -4.45,5.2 -6.68,12.01 -6.68,20.45zm106.93 -27.17l-27.12 0 0 23.5 25.12 0 0 7.99 -25.12 0 0 30.7 -9.08 0 0 -70.26 36.2 0 0 8.07zm56.3 0l-20.27 0 0 62.19 -9.12 0 0 -62.19 -20.19 0 0 -8.07 49.58 0 0 8.07zm96.97 -8.07l-19.68 70.26 -10.57 0 -14.15 -50.63c-0.64,-2.29 -1.01,-4.7 -1.13,-7.24l-0.19 0c-0.19,2.51 -0.6,4.89 -1.27,7.17l-14.29 50.7 -10.47 0 -20.37 -70.26 10.03 0 14.32 53.08c0.64,2.38 1.02,4.78 1.15,7.2l0.26 0c0.16,-1.81 0.65,-4.21 1.5,-7.2l15.19 -53.08 8.94 0 14.52 53.48c0.48,1.75 0.88,4 1.18,6.72l0.18 0c0.16,-1.97 0.59,-4.27 1.32,-6.91l13.78 -53.29 9.75 0zm61.83 70.26l-10.02 0 -7.17 -19.23 -29.26 0 -6.75 19.23 -10.04 0 26.77 -70.26 9.71 0 26.76 70.26zm-20.01 -27.17l-10.6 -29.22c-0.34,-0.92 -0.7,-2.57 -1.09,-4.89l-0.23 0c-0.34,2.12 -0.71,3.75 -1.13,4.89l-10.53 29.22 23.58 0zm81.48 27.17l-10.7 0 -11.66 -19.5c-2.32,-3.91 -4.46,-6.55 -6.4,-7.96 -1.93,-1.41 -4.24,-2.11 -6.93,-2.11l-6.54 0 0 29.57 -9.07 0 0 -70.26 21.41 0c6.83,0 12.19,1.64 16.06,4.94 3.87,3.3 5.81,7.91 5.81,13.84 0,9.74 -5.2,16.06 -15.61,18.95l0 0.24c1.94,0.82 3.61,1.98 5.02,3.5 1.41,1.5 3.22,4.08 5.46,7.75l13.15 21.04zm-42.23 -62.32l0 24.81 10.7 0c4.15,0 7.51,-1.21 10.1,-3.62 2.58,-2.44 3.88,-5.61 3.88,-9.53 0,-3.67 -1.19,-6.52 -3.54,-8.57 -2.35,-2.06 -5.79,-3.09 -10.3,-3.09l-10.84 0zm89.36 62.32l-37.78 0 0 -70.26 36.2 0 0 8.07 -27.13 0 0 22.5 25.13 0 0 8.03 -25.13 0 0 23.63 28.71 0 0 8.03z"/>
 </g>
</svg>
