<svg width="100" height="100" viewBox="0 0 100 100" fill="none" xmlns="http://www.w3.org/2000/svg">
<g clip-path="url(#clip0_2574_17334)">
<path d="M49.9998 99.4258C77.3819 99.4258 99.5796 77.2281 99.5796 49.8459C99.5796 22.4638 77.3819 0.266113 49.9998 0.266113C22.6176 0.266113 0.419922 22.4638 0.419922 49.8459C0.419922 77.2281 22.6176 99.4258 49.9998 99.4258Z" fill="white"/>
<path d="M4.81718 58.9882L4.63166 58.206L4.48325 57.4238C4.39049 56.9023 4.27918 56.3808 4.20497 55.8594C4.07511 54.7978 3.90815 53.7548 3.83394 52.6933C3.8896 53.8293 4.05656 54.9468 4.20497 56.0829C4.40904 57.2003 4.57601 58.3364 4.85428 59.4352C5.0769 60.5526 5.41083 61.6515 5.72621 62.7503L6.26421 64.3706C6.43117 64.9107 6.67234 65.4508 6.85786 65.9722C7.69268 68.0954 8.67592 70.1999 9.84467 72.1741C11.0134 74.1668 12.2749 76.0851 13.722 77.8917C15.169 79.6982 16.7273 81.393 18.4155 82.976C20.1223 84.5405 21.9218 85.9745 23.8326 87.2968C25.7434 88.5819 27.7655 89.7366 29.8433 90.7423C31.9211 91.7293 34.0917 92.5488 36.2807 93.2379C38.4884 93.9084 40.7331 94.3926 42.9964 94.7464C45.2597 95.0631 47.5416 95.2493 49.8234 95.2493C52.1053 95.2307 54.3686 95.0817 56.6133 94.7464C58.8581 94.3926 61.0657 93.9084 63.2177 93.2565C65.3697 92.5861 67.466 91.7852 69.4696 90.854C71.4732 89.8856 73.4211 88.824 75.2577 87.6134C77.0943 86.3842 78.8567 85.0806 80.4893 83.6279C80.8974 83.274 81.287 82.8829 81.6951 82.5291L82.2888 81.9703C82.4929 81.7841 82.6598 81.5792 82.8639 81.393C83.2349 81.0019 83.6245 80.6294 83.9955 80.2197C84.348 79.8099 84.7191 79.4188 85.0715 79.0091C85.4426 78.618 85.8507 78.0965 86.3331 77.5192C86.8154 76.9604 87.2977 76.3086 87.7801 75.6568C88.281 75.0235 88.7077 74.3345 89.1344 73.7199C89.561 73.1053 89.895 72.5279 90.1732 72.0623C90.7298 71.1311 91.2121 70.144 91.7316 69.157C92.1954 68.1326 92.6963 67.1269 93.0858 66.0467C93.1972 65.786 93.2899 65.5066 93.4012 65.2459C93.5125 64.9852 93.6053 64.7058 93.6981 64.4264C93.8836 63.8863 94.0691 63.3276 94.2546 62.7689C94.4401 62.2102 94.57 61.6515 94.7369 61.0741C94.8111 60.7947 94.8854 60.5154 94.9781 60.2174C95.0523 59.938 95.108 59.64 95.1822 59.3607C95.7387 57.0513 96.0912 54.6674 96.2767 52.2649C96.3138 51.6689 96.3695 51.0543 96.388 50.4397C96.4066 49.8252 96.4066 49.2292 96.4251 48.6146C96.388 47.404 96.388 46.1748 96.2582 44.9643C96.0541 42.5245 95.6831 40.1034 95.0894 37.7567C94.4958 35.4101 93.7723 33.1007 92.8447 30.9217C91.9171 28.7427 90.8597 26.6568 89.6909 24.7013C88.5036 22.7644 87.205 20.9392 85.8507 19.263C83.1051 15.9293 80.1554 13.5082 77.9477 11.9996C77.4097 11.6085 76.8903 11.2919 76.445 11.0126C75.9998 10.7332 75.6102 10.4911 75.2948 10.3235C74.6455 9.96961 74.293 9.78337 74.293 9.78337C74.0704 9.65301 73.8293 9.52264 73.6066 9.39227C73.384 9.2619 73.1428 9.16878 72.9388 9.05703C72.5121 8.85217 72.1596 8.68455 71.8999 8.59143C71.399 8.38657 71.3619 8.46106 72.2524 9.03841C73.1614 9.55988 74.4044 10.3421 75.6844 11.2547C76.3152 11.7203 77.0016 12.1859 77.6323 12.726C77.9477 12.9867 78.2816 13.2475 78.597 13.4896C78.9124 13.7503 79.2092 14.0297 79.5061 14.2904C79.8029 14.5511 80.0812 14.8119 80.3594 15.054L81.12 15.8176L81.8065 16.5067C82.0291 16.7302 82.2146 16.9536 82.3816 17.1399C83.0865 17.9221 83.4947 18.425 83.4576 18.4808C83.439 18.4994 83.3648 18.3877 83.1978 18.2387C83.0309 18.0711 82.8082 17.8476 82.53 17.5496C82.2517 17.2703 81.9549 16.935 81.6024 16.5812C81.2499 16.2459 80.8789 15.8735 80.4893 15.5196C80.4522 15.5568 80.1368 15.3334 79.6174 14.9795C79.0979 14.6256 78.4301 14.1042 77.6694 13.6013C77.2984 13.3406 76.9088 13.0798 76.5192 12.8191C76.1297 12.577 75.7401 12.3162 75.369 12.0928C74.6455 11.6085 73.9591 11.2361 73.5324 10.9381C73.0872 10.6587 72.0668 10.1186 70.7497 9.42952C70.0818 9.11291 69.3398 8.74043 68.5606 8.40519C67.7629 8.08858 66.9466 7.69748 66.0932 7.41812C65.6665 7.26912 65.2398 7.12013 64.8317 6.97114C64.405 6.84077 63.9783 6.7104 63.5702 6.58003C63.1621 6.46829 62.7539 6.31929 62.3643 6.22617C61.9748 6.13305 61.6037 6.03993 61.2327 5.94681C60.8802 5.87232 60.5463 5.76057 60.2309 5.7047C59.9155 5.64883 59.6187 5.59295 59.359 5.53708C58.8395 5.44396 58.4314 5.36947 58.1717 5.31359C56.6504 5.05286 56.6319 5.12735 57.5966 5.42534C58.5613 5.72332 60.4535 6.22617 62.6983 7.04563C64.9616 7.84647 67.5402 9.03841 69.8778 10.4166C72.2338 11.7762 74.3672 13.322 75.907 14.5698C77.4468 15.8362 77.3726 15.9293 76.9645 15.65C76.5378 15.3892 75.703 14.8491 75.6659 14.905C76.0554 15.203 76.4265 15.501 76.7604 15.7617C77.0943 16.0411 77.4097 16.3204 77.7065 16.5812C78.3187 17.1026 78.8382 17.6427 79.3576 18.1642C80.3965 19.2072 81.3798 20.3246 82.6598 21.8332C82.6598 21.8332 82.6784 21.8704 82.734 21.9449C82.7897 22.0194 82.8639 22.1125 82.9567 22.2615C83.1607 22.5222 83.4575 22.9134 83.81 23.3976C84.144 23.9004 84.5521 24.4778 85.0159 25.1482C85.22 25.4835 85.4426 25.8373 85.6837 26.2098C85.7951 26.3961 85.9249 26.5823 86.0362 26.7685C86.1475 26.9734 86.2588 27.1596 86.3702 27.3645C86.5928 27.7742 86.8339 28.184 87.0566 28.5937C87.2792 29.0221 87.4833 29.4504 87.7059 29.8974C87.9285 30.3257 88.1326 30.7913 88.3366 31.2383C88.5221 31.6853 88.7448 32.1323 88.9117 32.5793C89.0787 33.0262 89.2642 33.4732 89.4312 33.9202C89.5981 34.3485 89.728 34.7955 89.8764 35.2239C90.1732 36.062 90.3959 36.8628 90.5999 37.5705C90.5999 37.5705 90.637 37.6823 90.7112 37.9616C90.804 38.2223 90.8782 38.6507 91.0452 39.2467C91.1194 39.5447 91.2121 39.8799 91.2863 40.2896C91.3605 40.6807 91.4533 41.1277 91.5461 41.6306C91.6574 42.1334 91.713 42.6921 91.8058 43.3067C91.8429 43.6233 91.8985 43.9399 91.9356 44.2752C91.9728 44.6104 91.9913 44.9643 92.0284 45.3368C92.0655 45.821 92.1026 46.1935 92.1212 46.4728C92.1397 46.7522 92.1583 46.9384 92.1583 47.0502C92.1768 47.2923 92.2139 47.2923 92.2325 47.2923H92.1212C92.2139 48.2794 92.2139 49.7693 92.1212 51.2406C92.047 52.7305 91.8429 54.1832 91.7316 55.1703C91.6759 55.1703 91.6759 55.1703 91.6203 55.1516C91.4719 56.1201 91.342 57.1072 91.1194 58.0756C91.0081 58.5599 90.9153 59.0441 90.7854 59.5097L90.3959 60.9437C89.8208 62.8248 89.1529 64.6872 88.3552 66.4937C88.2995 66.4751 88.2995 66.4751 88.2624 66.4565C87.8728 67.369 87.409 68.2258 87.0751 68.8776C86.9082 69.2128 86.7412 69.4736 86.6299 69.6412C86.5186 69.8274 86.4444 69.9205 86.4444 69.9205C86.4073 69.9019 86.4073 69.9019 86.3516 69.8647C85.8507 70.7214 85.0901 71.9692 84.4037 72.9749C84.0512 73.4777 83.7358 73.9247 83.4947 74.2413C83.2535 74.5579 83.0865 74.7442 83.068 74.7256C83.1051 74.7628 83.1051 74.7628 83.1422 74.7814C82.8453 75.1725 82.5485 75.545 82.2517 75.9175C81.9363 76.2714 81.6395 76.6252 81.3241 76.9791C81.1757 77.1467 81.0273 77.3329 80.8789 77.5006C80.7305 77.6682 80.5635 77.8358 80.4151 77.9848C80.0997 78.3014 79.8029 78.6366 79.4875 78.9346C78.226 80.1452 77.0016 81.2626 75.7401 82.2124C73.217 84.168 70.694 85.6951 68.0597 86.9616C66.2787 87.781 64.4236 88.5446 62.4571 89.1592C60.4906 89.7552 58.4314 90.258 56.3165 90.5933C54.2016 90.9099 52.0125 91.0961 49.8049 91.1148C47.5972 91.1148 45.371 90.9285 43.1263 90.5933L41.4567 90.3139C40.9001 90.1836 40.3436 90.0718 39.8056 89.9414C39.249 89.8297 38.711 89.6621 38.1545 89.5131L37.3382 89.2896C37.0599 89.2151 36.8002 89.122 36.5219 89.0289C35.9839 88.8426 35.4459 88.6936 34.9079 88.4701L33.3125 87.8555C32.2736 87.3899 31.2347 86.943 30.2329 86.4215C28.2108 85.3785 26.2814 84.2052 24.4634 82.8643C22.6638 81.5234 20.9757 80.0521 19.4173 78.5063C18.7495 77.7985 18.0445 77.1094 17.7106 76.7556C17.3581 76.4017 17.321 76.439 17.9146 77.2212C16.616 75.7499 15.4102 74.1855 14.2971 72.5652C13.7776 71.7271 13.4251 71.2242 13.184 70.8704C12.9613 70.4979 12.8129 70.293 12.6831 70.0882C12.5532 69.8833 12.4048 69.6784 12.1822 69.306C11.9596 68.9335 11.6813 68.3934 11.236 67.4994C9.49219 63.9608 8.21213 60.1615 7.52572 56.2691L7.39586 55.5428L7.28455 54.8164L7.08048 53.3451C7.00627 52.358 6.87641 51.371 6.87641 50.3839C6.78365 48.4097 6.87641 46.4169 7.06193 44.4428C7.84109 36.5462 10.8836 28.8917 15.707 22.634L16.616 21.4607L17.5807 20.3432C17.8961 19.9707 18.2486 19.6169 18.5825 19.2444C18.935 18.8906 19.2503 18.5181 19.6214 18.1828C21.0313 16.786 22.5525 15.5196 24.1294 14.3277C25.7249 13.1543 27.3945 12.0928 29.1198 11.1429C29.5465 10.9008 29.9917 10.696 30.437 10.4538L31.1048 10.1186L31.7727 9.82062C32.2179 9.61576 32.6632 9.41089 33.127 9.22465L34.4998 8.68455C36.355 8.01409 38.2287 7.39949 40.158 6.97114L40.8816 6.80352L41.6051 6.67315C42.0874 6.58003 42.5698 6.48691 43.0706 6.41241C44.0539 6.28205 45.0186 6.13305 46.0018 6.07718C49.9348 5.72332 53.9048 5.98406 57.8006 6.69178C53.9234 5.92819 50.4356 5.7047 46.985 5.85369C45.2597 5.96544 43.5344 6.13305 41.772 6.46829C40.8816 6.61728 39.9911 6.84077 39.082 7.04563C38.6183 7.13875 38.173 7.30637 37.7092 7.43674C37.2454 7.56711 36.7816 7.69748 36.3179 7.86509C36.3179 7.84647 36.2993 7.80922 36.0581 7.84647C35.9283 7.86509 35.7613 7.92097 35.483 7.99546C35.2233 8.08858 34.8523 8.1817 34.3885 8.36794C31.5872 9.41089 28.8044 10.8077 26.2072 12.4839C23.61 14.16 21.2354 16.0969 19.2132 18.1083C17.1726 20.1197 15.4844 22.2056 14.1486 24.1239C13.7962 24.5895 13.4993 25.0737 13.2025 25.5207C12.9057 25.9677 12.6089 26.3961 12.3677 26.8244C12.108 27.2528 11.8853 27.6439 11.6627 28.0164C11.4401 28.3888 11.2546 28.7613 11.0691 29.0779C10.5867 29.9533 10.1229 30.8472 9.49219 32.2068C9.34378 32.5606 9.19536 32.9331 9.00985 33.3428C8.91709 33.5477 8.84288 33.7712 8.75012 33.9947C8.67592 34.2182 8.58316 34.4603 8.4904 34.721C8.39764 34.9818 8.30489 35.2425 8.21213 35.5219C8.11937 35.8012 8.00806 36.0806 7.93385 36.3972C7.76689 37.0118 7.56282 37.6823 7.3773 38.4086C7.8782 36.4531 8.4533 34.5162 9.21392 32.6537C9.15826 32.6351 9.0655 32.5979 9.0655 32.5979C7.54427 36.3413 6.41262 40.7925 6.02303 45.3368C5.80041 47.6089 5.81897 49.881 5.96738 52.0973C6.09724 54.3136 6.44972 56.4367 6.87641 58.4295C6.87641 58.4295 6.78365 58.4481 6.728 58.4667C7.02482 59.789 7.3773 61.0927 7.80399 62.3778C7.9153 62.8806 7.9153 62.9738 7.80399 62.7503C7.69268 62.5268 7.47006 61.9867 7.22889 61.1859C6.69089 59.5842 6.00448 56.9023 5.63345 53.7176C5.24387 50.5329 5.24387 46.8639 5.67055 43.3998C6.07869 39.9358 6.91351 36.6766 7.74834 34.2554C7.69268 34.2368 7.59992 34.1995 7.54427 34.1809L7.22889 35.168C7.11758 35.4846 7.00627 35.8198 6.93206 36.1551C6.74655 36.8255 6.56103 37.4774 6.39407 38.1479L6.30131 38.1292C7.78544 32.1137 10.3085 26.8989 13.6478 22.3174C17.0056 17.7545 21.1983 13.7689 26.4669 10.547C26.0402 10.8263 25.4837 11.1802 24.89 11.5527C24.2964 11.9438 23.6842 12.4094 23.0534 12.8563C22.4412 13.3406 21.829 13.8062 21.2725 14.2532C20.7345 14.7188 20.2521 15.1285 19.8626 15.4823C19.844 15.4637 19.8254 15.4451 19.6214 15.5941C19.4173 15.7617 19.0463 16.0969 18.2857 16.8233C19.7512 15.3706 21.4394 13.9552 23.2575 12.6142C25.0756 11.2733 27.0606 10.0627 29.1198 9.00116C30.1402 8.46106 31.2162 7.99546 32.255 7.51124C32.793 7.30637 33.331 7.08288 33.8505 6.87802C34.3699 6.65453 34.9265 6.50554 35.4459 6.30067C37.5794 5.57433 39.7128 5.01561 41.7349 4.64313C42.7367 4.43826 42.7367 4.38239 41.7164 4.51276C41.1969 4.58725 40.4363 4.68037 39.416 4.90386C38.3956 5.10873 37.1341 5.42534 35.65 5.89094C32.6817 6.85939 30.3071 7.93959 28.0253 9.1874C25.7434 10.4352 23.5543 11.8693 21.1241 13.8248L21.0499 13.7503C22.6638 12.428 24.7973 10.9194 27.0606 9.63438C29.3239 8.3307 31.6799 7.23187 33.6279 6.48691C34.5925 6.07718 33.6093 6.43104 32.6261 6.76627C32.3849 6.85939 32.1252 6.93389 31.9211 7.00839C31.717 7.08288 31.5315 7.15738 31.4017 7.21325C31.1605 7.30637 31.1419 7.28775 31.6243 7.06426C32.1066 6.84077 32.589 6.67315 33.0713 6.46829C33.5537 6.28205 34.036 6.07718 34.5369 5.90956L36.021 5.38809L37.5237 4.92249C34.4998 5.76057 31.0492 7.10151 27.8398 8.85217C24.6303 10.6215 21.6435 12.8005 19.2875 14.8864C18.8793 15.2216 18.5083 15.5755 18.1373 15.9107C17.7662 16.2459 17.4323 16.5439 17.154 16.8233C16.5789 17.3634 16.1893 17.7172 16.1522 17.68C14.3713 19.6169 12.85 21.6097 11.5329 23.5838C11.2175 24.0867 10.9021 24.5709 10.5867 25.0551C10.2899 25.558 10.0116 26.0422 9.73336 26.5264C9.43653 27.0107 9.19536 27.4949 8.93564 27.9791C8.69447 28.4633 8.4162 28.9289 8.21213 29.4132C6.39407 33.2311 5.24387 36.7697 4.5018 39.8799C4.44615 40.1406 4.37194 40.5317 4.27918 41.0346C4.18642 41.5374 4.05656 42.1334 3.98235 42.8411C3.79684 44.2193 3.62987 45.9513 3.59277 47.8138C3.59277 48.2794 3.57422 48.7636 3.57422 49.2292L3.62987 50.6819L3.64843 51.4082L3.70408 52.1345C3.74118 52.6188 3.77829 53.103 3.83394 53.5872C3.8896 54.0714 3.9638 54.5371 4.01946 55.0027C4.09366 55.4683 4.13077 55.9339 4.22353 56.3808C4.48325 57.3679 4.61311 58.2246 4.81718 58.9882Z" fill="#FFA439"/>
<path d="M5.2075 62.2311C3.50075 62.2311 2.10938 60.8156 2.10938 59.0464V47.6484C2.10938 45.8791 3.81613 44.4637 5.52288 44.4637L94.7191 44.4451C96.4259 44.4451 97.8172 45.8605 97.8172 47.6298L97.8915 59.0277C97.8915 60.7784 96.5001 62.2124 94.7933 62.2124L5.2075 62.2311Z" fill="#FFA439"/>
<path d="M5.2075 62.2311C3.50075 62.2311 2.10938 60.8156 2.10938 59.0464V47.6484C2.10938 45.8791 3.81613 44.4637 5.52288 44.4637L94.7191 44.4451C96.4259 44.4451 97.8172 45.8605 97.8172 47.6298L97.8915 59.0277C97.8915 60.7784 96.5001 62.2124 94.7933 62.2124L5.2075 62.2311Z" fill="url(#paint0_linear_2574_17334)" fill-opacity="0.8"/>
<path d="M5.2075 62.2311C3.50075 62.2311 2.10938 60.8156 2.10938 59.0464V47.6484C2.10938 45.8791 3.81613 44.4637 5.52288 44.4637L94.7191 44.4451C96.4259 44.4451 97.8172 45.8605 97.8172 47.6298L97.8915 59.0277C97.8915 60.7784 96.5001 62.2124 94.7933 62.2124L5.2075 62.2311Z" stroke="white" stroke-width="3"/>
<path d="M33.0152 75.0631C26.3552 85.1201 24.5 93.7989 24.5 93.7989C23.5724 95.2702 21.6431 95.6986 20.2146 94.7301L11.0872 88.2303C9.64017 87.2805 9.25058 85.3064 10.1782 83.8164C10.1782 83.8164 15.1314 72.0274 22.6634 63.1064C31.123 53.1053 39.1558 48.412 39.1558 48.412C40.0834 46.9407 42.0128 46.5124 43.4412 47.4808L52.5686 53.9806C53.9971 54.9305 54.4053 56.9046 53.4777 58.3759C53.4777 58.3759 41.382 62.4173 33.0152 75.0631Z" fill="#FFA439"/>
<path d="M33.0152 75.0631C26.3552 85.1201 24.5 93.7989 24.5 93.7989C23.5724 95.2702 21.6431 95.6986 20.2146 94.7301L11.0872 88.2303C9.64017 87.2805 9.25058 85.3064 10.1782 83.8164C10.1782 83.8164 15.1314 72.0274 22.6634 63.1064C31.123 53.1053 39.1558 48.412 39.1558 48.412C40.0834 46.9407 42.0128 46.5124 43.4412 47.4808L52.5686 53.9806C53.9971 54.9305 54.4053 56.9046 53.4777 58.3759C53.4777 58.3759 41.382 62.4173 33.0152 75.0631Z" fill="url(#paint1_linear_2574_17334)" fill-opacity="0.8"/>
<path d="M33.0152 75.0631C26.3552 85.1201 24.5 93.7989 24.5 93.7989C23.5724 95.2702 21.6431 95.6986 20.2146 94.7301L11.0872 88.2303C9.64017 87.2805 9.25058 85.3064 10.1782 83.8164C10.1782 83.8164 15.1314 72.0274 22.6634 63.1064C31.123 53.1053 39.1558 48.412 39.1558 48.412C40.0834 46.9407 42.0128 46.5124 43.4412 47.4808L52.5686 53.9806C53.9971 54.9305 54.4053 56.9046 53.4777 58.3759C53.4777 58.3759 41.382 62.4173 33.0152 75.0631Z" stroke="white" stroke-width="3"/>
<path d="M63.8298 75.0629C70.4898 85.1199 72.345 93.7987 72.345 93.7987C73.2725 95.27 75.2019 95.6983 76.6304 94.7299L85.7578 88.2301C87.1863 87.2803 87.5944 85.3061 86.6668 83.8162C86.6668 83.8162 81.7135 72.0271 74.1816 63.1062C65.722 53.1051 57.6892 48.4118 57.6892 48.4118C56.7616 46.9405 54.8322 46.5121 53.4038 47.4806L48.2649 53.9804C46.8365 54.9302 47.8012 56.9044 48.7287 58.3757C48.7287 58.3757 55.463 62.4171 63.8298 75.0629Z" fill="#FFA439"/>
<path d="M63.8298 75.0629C70.4898 85.1199 72.345 93.7987 72.345 93.7987C73.2725 95.27 75.2019 95.6983 76.6304 94.7299L85.7578 88.2301C87.1863 87.2803 87.5944 85.3061 86.6668 83.8162C86.6668 83.8162 81.7135 72.0271 74.1816 63.1062C65.722 53.1051 57.6892 48.4118 57.6892 48.4118C56.7616 46.9405 54.8322 46.5121 53.4038 47.4806L48.2649 53.9804C46.8365 54.9302 47.8012 56.9044 48.7287 58.3757C48.7287 58.3757 55.463 62.4171 63.8298 75.0629Z" fill="url(#paint2_linear_2574_17334)" fill-opacity="0.8"/>
<path d="M63.8298 75.0629C70.4898 85.1199 72.345 93.7987 72.345 93.7987C73.2725 95.27 75.2019 95.6983 76.6304 94.7299L85.7578 88.2301C87.1863 87.2803 87.5944 85.3061 86.6668 83.8162C86.6668 83.8162 81.7135 72.0271 74.1816 63.1062C65.722 53.1051 57.6892 48.4118 57.6892 48.4118C56.7616 46.9405 54.8322 46.5121 53.4038 47.4806L48.2649 53.9804C46.8365 54.9302 47.8012 56.9044 48.7287 58.3757C48.7287 58.3757 55.463 62.4171 63.8298 75.0629Z" stroke="white" stroke-width="3"/>
<path d="M46.9107 42.5823C46.9107 42.5823 46.5953 37.2744 40.362 39.9749C38.8964 40.6082 31.3273 45.5622 34.2214 50.423C34.2214 50.423 49.3224 57.165 52.4762 57.165L53.849 55.675L46.9107 42.5823Z" fill="#FFA439"/>
<path d="M46.9107 42.5823C46.9107 42.5823 46.5953 37.2744 40.362 39.9749C38.8964 40.6082 31.3273 45.5622 34.2214 50.423C34.2214 50.423 49.3224 57.165 52.4762 57.165L53.849 55.675L46.9107 42.5823Z" fill="url(#paint3_linear_2574_17334)" fill-opacity="0.8"/>
<path d="M46.9107 42.5823C46.9107 42.5823 46.5953 37.2744 40.362 39.9749C38.8964 40.6082 31.3273 45.5622 34.2214 50.423C34.2214 50.423 49.3224 57.165 52.4762 57.165L53.849 55.675L46.9107 42.5823Z" stroke="white" stroke-width="3"/>
<path d="M45.6311 46.1212C45.6311 46.1212 44.8334 38.3922 50.8071 39.2303C55.4264 39.8635 59.2109 41.6142 61.0661 42.0053C62.6244 42.3219 65.3886 44.445 64.9619 48.0581C64.3126 53.6081 53.2559 62.6408 53.2559 62.6408H47.7831L45.6311 46.1212Z" fill="#FFA439"/>
<path d="M45.6311 46.1212C45.6311 46.1212 44.8334 38.3922 50.8071 39.2303C55.4264 39.8635 59.2109 41.6142 61.0661 42.0053C62.6244 42.3219 65.3886 44.445 64.9619 48.0581C64.3126 53.6081 53.2559 62.6408 53.2559 62.6408H47.7831L45.6311 46.1212Z" fill="url(#paint4_linear_2574_17334)" fill-opacity="0.8"/>
<path d="M45.6311 46.1212C45.6311 46.1212 44.8334 38.3922 50.8071 39.2303C55.4264 39.8635 59.2109 41.6142 61.0661 42.0053C62.6244 42.3219 65.3886 44.445 64.9619 48.0581C64.3126 53.6081 53.2559 62.6408 53.2559 62.6408H47.7831L45.6311 46.1212Z" stroke="white" stroke-width="3"/>
<path d="M24.9489 88.0606C23.0381 86.7383 20.1232 84.541 18.4164 82.9765C16.8914 81.5465 15.4723 80.0252 14.1455 78.4127L15.9961 75.0122C15.9961 75.0122 16.6169 75.7504 17.9156 77.2217C17.3219 76.4395 17.359 76.4022 17.7115 76.7561C18.0454 77.1099 18.7504 77.799 19.4182 78.5068C20.9766 80.0526 24.6533 82.9157 26.4528 84.2567L24.9489 88.0606Z" fill="white"/>
<path d="M75.2587 87.6139C73.422 88.8245 74.3468 88.5424 72.3433 89.5109L70.824 85.5184C73.4583 84.2519 73.218 84.1685 75.741 82.2129C77.0025 81.2631 78.2269 80.1457 79.4884 78.9351C79.8038 78.6371 80.1006 78.3019 80.416 77.9853C80.5644 77.8363 80.7314 77.6687 80.8798 77.5011C81.0282 77.3334 81.5477 76.6147 81.6961 76.4471L83.7908 80.5366C83.4198 80.9463 83.2358 81.0024 82.8648 81.3935C82.6608 81.5797 82.4938 81.7846 82.2897 81.9708L81.6961 82.5296C81.2879 82.8834 80.8983 83.2745 80.4902 83.6284C78.8577 85.081 77.0953 86.3847 75.2587 87.6139Z" fill="white"/>
<rect width="72" height="22" transform="translate(31.5 3)" fill="white" fill-opacity="0.01"/>
<rect x="31.5" y="3" width="72" height="22" rx="11" fill="#FFA439"/>
<path d="M48.8994 13.791V14.2627C48.8994 15.0192 48.7969 15.6982 48.5918 16.2998C48.3867 16.9014 48.0973 17.4141 47.7236 17.8379C47.3499 18.2572 46.9033 18.5785 46.3838 18.8018C45.8688 19.0251 45.2969 19.1367 44.668 19.1367C44.0436 19.1367 43.4717 19.0251 42.9521 18.8018C42.4372 18.5785 41.9906 18.2572 41.6123 17.8379C41.234 17.4141 40.9401 16.9014 40.7305 16.2998C40.5254 15.6982 40.4229 15.0192 40.4229 14.2627V13.791C40.4229 13.0299 40.5254 12.3509 40.7305 11.7539C40.9355 11.1523 41.2249 10.6396 41.5986 10.2158C41.9769 9.79199 42.4235 9.46842 42.9385 9.24512C43.458 9.02181 44.0299 8.91016 44.6543 8.91016C45.2832 8.91016 45.8551 9.02181 46.3701 9.24512C46.8896 9.46842 47.3363 9.79199 47.71 10.2158C48.0882 10.6396 48.3799 11.1523 48.585 11.7539C48.7946 12.3509 48.8994 13.0299 48.8994 13.791ZM46.8281 14.2627V13.7773C46.8281 13.2487 46.7803 12.7839 46.6846 12.3828C46.5889 11.9818 46.4476 11.6445 46.2607 11.3711C46.0739 11.0977 45.846 10.8926 45.5771 10.7559C45.3083 10.6146 45.0007 10.5439 44.6543 10.5439C44.3079 10.5439 44.0003 10.6146 43.7314 10.7559C43.4671 10.8926 43.2415 11.0977 43.0547 11.3711C42.8724 11.6445 42.7334 11.9818 42.6377 12.3828C42.542 12.7839 42.4941 13.2487 42.4941 13.7773V14.2627C42.4941 14.7868 42.542 15.2516 42.6377 15.6572C42.7334 16.0583 42.8747 16.3978 43.0615 16.6758C43.2484 16.9492 43.4762 17.1566 43.7451 17.2979C44.014 17.4391 44.3216 17.5098 44.668 17.5098C45.0143 17.5098 45.3219 17.4391 45.5908 17.2979C45.8597 17.1566 46.0853 16.9492 46.2676 16.6758C46.4499 16.3978 46.5889 16.0583 46.6846 15.6572C46.7803 15.2516 46.8281 14.7868 46.8281 14.2627ZM50.376 9.04688H54.0879C54.849 9.04688 55.5029 9.16081 56.0498 9.38867C56.6012 9.61654 57.0251 9.95378 57.3213 10.4004C57.6175 10.847 57.7656 11.3962 57.7656 12.0479C57.7656 12.5811 57.6745 13.0391 57.4922 13.4219C57.3145 13.8001 57.0615 14.1169 56.7334 14.3721C56.4098 14.6227 56.0293 14.8232 55.5918 14.9736L54.9424 15.3154H51.7158L51.7021 13.7158H54.1016C54.4616 13.7158 54.7601 13.652 54.9971 13.5244C55.234 13.3968 55.4118 13.2191 55.5303 12.9912C55.6533 12.7633 55.7148 12.499 55.7148 12.1982C55.7148 11.8792 55.6556 11.6035 55.5371 11.3711C55.4186 11.1387 55.2386 10.9609 54.9971 10.8379C54.7555 10.7148 54.4525 10.6533 54.0879 10.6533H52.4268V19H50.376V9.04688ZM55.9404 19L53.6709 14.5635L55.8379 14.5498L58.1348 18.9043V19H55.9404ZM63.3916 10.749L60.6846 19H58.5039L62.2021 9.04688H63.5898L63.3916 10.749ZM65.6406 19L62.9268 10.749L62.708 9.04688H64.1094L67.8281 19H65.6406ZM65.5176 15.2949V16.9014H60.2607V15.2949H65.5176ZM76.8516 9.04688V19H74.8008L70.8018 12.3281V19H68.751V9.04688H70.8018L74.8076 15.7256V9.04688H76.8516ZM86.5244 13.7979V17.7422C86.3695 17.929 86.1302 18.1318 85.8066 18.3506C85.4831 18.5648 85.0661 18.7493 84.5557 18.9043C84.0452 19.0592 83.4277 19.1367 82.7031 19.1367C82.0605 19.1367 81.4749 19.0319 80.9463 18.8223C80.4176 18.6081 79.9619 18.2959 79.5791 17.8857C79.2008 17.4756 78.9092 16.9743 78.7041 16.3818C78.499 15.7848 78.3965 15.1035 78.3965 14.3379V13.7158C78.3965 12.9502 78.4945 12.2689 78.6904 11.6719C78.891 11.0749 79.1758 10.5713 79.5449 10.1611C79.9141 9.75098 80.3538 9.4388 80.8643 9.22461C81.3747 9.01042 81.9421 8.90332 82.5664 8.90332C83.4323 8.90332 84.1432 9.0446 84.6992 9.32715C85.2552 9.60514 85.679 9.99251 85.9707 10.4893C86.2669 10.9814 86.4492 11.5465 86.5176 12.1846H84.5283C84.4782 11.8473 84.3825 11.5534 84.2412 11.3027C84.0999 11.0521 83.8971 10.8561 83.6328 10.7148C83.373 10.5736 83.0358 10.5029 82.6211 10.5029C82.2793 10.5029 81.974 10.5736 81.7051 10.7148C81.4408 10.8516 81.2174 11.0544 81.0352 11.3232C80.8529 11.5921 80.7139 11.9248 80.6182 12.3213C80.5225 12.7178 80.4746 13.1781 80.4746 13.7021V14.3379C80.4746 14.8574 80.5247 15.3177 80.625 15.7188C80.7253 16.1152 80.8734 16.4502 81.0693 16.7236C81.2699 16.9925 81.516 17.1953 81.8076 17.332C82.0993 17.4688 82.4388 17.5371 82.8262 17.5371C83.1497 17.5371 83.4186 17.5098 83.6328 17.4551C83.8516 17.4004 84.027 17.3343 84.1592 17.2568C84.2959 17.1748 84.4007 17.0973 84.4736 17.0244V15.2607H82.6006V13.7979H86.5244ZM94.8574 17.4004V19H89.5596V17.4004H94.8574ZM90.2295 9.04688V19H88.1787V9.04688H90.2295ZM94.167 13.1006V14.6592H89.5596V13.1006H94.167ZM94.8506 9.04688V10.6533H89.5596V9.04688H94.8506Z" fill="white"/>
</g>
<defs>
<linearGradient id="paint0_linear_2574_17334" x1="-1.29907" y1="44.4451" x2="97.8906" y2="102.669" gradientUnits="userSpaceOnUse">
<stop stop-color="#D36500"/>
<stop offset="1" stop-color="#FFA439" stop-opacity="0"/>
</linearGradient>
<linearGradient id="paint1_linear_2574_17334" x1="8.09989" y1="46.9614" x2="69.1704" y2="53.0681" gradientUnits="userSpaceOnUse">
<stop stop-color="#D36500"/>
<stop offset="1" stop-color="#FFA439" stop-opacity="0"/>
</linearGradient>
<linearGradient id="paint2_linear_2574_17334" x1="46.129" y1="46.9612" x2="100.865" y2="51.857" gradientUnits="userSpaceOnUse">
<stop stop-color="#D36500"/>
<stop offset="1" stop-color="#FFA439" stop-opacity="0"/>
</linearGradient>
<linearGradient id="paint3_linear_2574_17334" x1="32.8462" y1="39.209" x2="60.6639" y2="42.6338" gradientUnits="userSpaceOnUse">
<stop stop-color="#D36500"/>
<stop offset="1" stop-color="#FFA439" stop-opacity="0"/>
</linearGradient>
<linearGradient id="paint4_linear_2574_17334" x1="44.905" y1="39.1668" x2="71.7142" y2="41.5831" gradientUnits="userSpaceOnUse">
<stop stop-color="#D36500"/>
<stop offset="1" stop-color="#FFA439" stop-opacity="0"/>
</linearGradient>
<clipPath id="clip0_2574_17334">
<rect width="100" height="100" fill="white"/>
</clipPath>
</defs>
</svg>
