<?xml version="1.0" encoding="UTF-8"?>
<!DOCTYPE svg PUBLIC "-//W3C//DTD SVG 1.1//EN" "http://www.w3.org/Graphics/SVG/1.1/DTD/svg11.dtd">
<!-- Creator: CorelDRAW 2020 (64 Bit) -->
<svg xmlns="http://www.w3.org/2000/svg" xml:space="preserve" width="42.3332mm" height="42.3332mm" version="1.1" style="shape-rendering:geometricPrecision; text-rendering:geometricPrecision; image-rendering:optimizeQuality; fill-rule:evenodd; clip-rule:evenodd"
viewBox="0 0 4233.32 4233.32"
 xmlns:xlink="http://www.w3.org/1999/xlink"
 xmlns:xodm="http://www.corel.com/coreldraw/odm/2003">
 <defs>
  <style type="text/css">
   <![CDATA[
    .fil3 {fill:#FEFEFE}
    .fil0 {fill:black}
    .fil2 {fill:#FEFEFE;fill-rule:nonzero}
    .fil1 {fill:#FEFEFE}
   ]]>
  </style>
 </defs>
 <g id="Camada_x0020_1">
  <metadata id="CorelCorpID_0Corel-Layer"/>
  <rect class="fil0" x="-0.02" y="-0.01" width="4233.33" height="4233.33"/>
  <g id="_2410334644240">
   <polygon class="fil1" points="1262.21,1167.33 1443.28,1167.33 1823.68,2104.64 1644.13,2104.64 "/>
   <polygon class="fil1" points="2016.92,1167.33 2197.99,1167.33 2578.39,2104.64 2398.85,2104.64 "/>
   <polygon class="fil1" points="2197.99,1167.33 2016.92,1167.33 1820.64,1650.98 1910.6,1872.65 "/>
   <polygon class="fil1" points="2961.84,1167.33 2780.77,1167.33 2579.92,1662.23 2669.87,1883.87 "/>
   <polygon class="fil1" points="3725.68,1167.33 3544.61,1167.33 3164.21,2104.64 3343.76,2104.64 "/>
   <path class="fil2" d="M1346.79 3065.99c-12.95,0 -25.35,-1.09 -37.21,-3.23 -11.85,-2.14 -22.61,-5.27 -32.21,-9.33l5.1 -39.07c11.8,5.05 23.38,8.89 34.74,11.52 11.36,2.58 22.12,3.9 32.16,3.9 12.89,0 22.61,-2.25 29.19,-6.81 6.59,-4.55 9.88,-11.25 9.88,-20.03 0,-11.47 -6.53,-20.19 -19.59,-26.17l-35.56 -16.9c-15.97,-7.52 -28.26,-16.8 -36.88,-27.83 -8.62,-11.03 -12.95,-23.71 -12.95,-38.08 0,-19.92 6.37,-35.4 19.04,-46.32 12.73,-10.92 30.68,-16.41 53.95,-16.41 14.59,0 27.98,2.42 40.28,7.19 12.29,4.78 23.48,11.97 33.69,21.63l-26.56 29.24c-8.23,-7.29 -16.24,-12.78 -24.04,-16.46 -7.73,-3.73 -15.47,-5.54 -23.21,-5.6 -10.1,0.06 -17.89,2.31 -23.49,6.86 -5.54,4.56 -8.34,11.2 -8.34,19.87 0,5.98 1.92,11.25 5.71,15.8 3.79,4.56 9.27,8.67 16.46,12.35l32 15.91c16.4,8.13 28.97,17.51 37.7,28.21 8.72,10.65 13.11,22.94 13.11,36.88 0,20.47 -7.02,36.05 -21.13,46.81 -14.1,10.7 -34.73,16.07 -61.84,16.07zm200.84 0c-57.23,0 -85.88,-38.63 -85.88,-115.78 0,-79.3 28.65,-118.98 85.88,-118.98 57.24,0 85.83,39.68 85.83,118.98 0,77.15 -28.59,115.78 -85.83,115.78zm0 -36.05c30.24,-0.11 45.33,-26.67 45.33,-79.73 0.11,-55.32 -14.98,-82.92 -45.33,-82.98 -30.23,0.11 -45.32,27.77 -45.32,82.98 -0.11,53.17 14.98,79.73 45.32,79.73zm120.56 32.82l0 -228.29 38.8 0 0 228.29 -38.8 0zm0 0l0 -35.67 154.37 0.16 0 35.51 -154.37 0zm264.67 3.23c-49.93,0 -74.91,-25.51 -74.91,-76.55l0 -154.97 38.75 0 0 154.97c0,13.17 2.96,23.16 8.94,29.91 5.93,6.75 15.2,10.15 27.88,10.15 24.53,-0.11 36.82,-13.5 36.82,-40.06l0 -154.97 38.75 0 0 154.97c0,25.52 -6.48,44.67 -19.48,57.4 -12.95,12.74 -31.89,19.15 -56.75,19.15zm174.29 -3.23l-0.17 -228.29 38.75 0 0.16 228.29 -38.74 0zm-65.91 -192.78l0 -35.51 170.45 0 0 35.67 -170.45 -0.16zm258.69 192.78l-0.17 -228.29 38.75 0 0.16 228.29 -38.74 0zm-51.59 0l0 -35.23 142.13 0.16 0 35.07 -142.13 0zm0 -193.22l0 -35.07 142.13 0 0 35.07 -142.13 0zm264.01 196.45c-57.24,0 -85.88,-38.63 -85.88,-115.78 0,-79.3 28.64,-118.98 85.88,-118.98 57.24,0 85.83,39.68 85.83,118.98 0,77.15 -28.59,115.78 -85.83,115.78zm0 -36.05c30.24,-0.11 45.33,-26.67 45.33,-79.73 0.11,-55.32 -14.98,-82.92 -45.33,-82.98 -30.24,0.11 -45.33,27.77 -45.33,82.98 -0.11,53.17 14.98,79.73 45.33,79.73zm211.77 32.82l-50.32 -176.54 -16.58 0 0 -51.75 29.25 0 50.33 176.54 9.82 0 0 51.75 -22.5 0zm-93.13 0l0 -228.29 37.81 0 0 228.29 -37.81 0zm110.8 0l0 -228.29 37.75 0 0 228.29 -37.75 0zm148.55 3.23c-12.95,0 -25.36,-1.09 -37.21,-3.23 -11.85,-2.14 -22.61,-5.27 -32.21,-9.33l5.1 -39.07c11.8,5.05 23.38,8.89 34.74,11.52 11.36,2.58 22.11,3.9 32.16,3.9 12.89,0 22.6,-2.25 29.19,-6.81 6.58,-4.55 9.88,-11.25 9.88,-20.03 0,-11.47 -6.53,-20.19 -19.59,-26.17l-35.56 -16.9c-15.97,-7.52 -28.27,-16.8 -36.88,-27.83 -8.62,-11.03 -12.95,-23.71 -12.95,-38.08 0,-19.92 6.37,-35.4 19.04,-46.32 12.73,-10.92 30.68,-16.41 53.95,-16.41 14.59,0 27.98,2.42 40.28,7.19 12.29,4.78 23.48,11.97 33.69,21.63l-26.56 29.24c-8.23,-7.29 -16.24,-12.78 -24.04,-16.46 -7.74,-3.73 -15.47,-5.54 -23.21,-5.6 -10.1,0.06 -17.89,2.31 -23.49,6.86 -5.54,4.56 -8.34,11.2 -8.34,19.87 0,5.98 1.92,11.25 5.71,15.8 3.79,4.56 9.27,8.67 16.46,12.35l32 15.91c16.4,8.13 28.97,17.51 37.69,28.21 8.73,10.65 13.12,22.94 13.12,36.88 0,20.47 -7.02,36.05 -21.13,46.81 -14.1,10.7 -34.73,16.07 -61.84,16.07z"/>
   <polygon class="fil3" points="3054.61,1938.13 3337.21,1938.13 3337.21,2104.64 2986.62,2104.64 "/>
   <polygon class="fil1" points="507.64,1167.33 688.71,1167.33 1069.11,2104.64 889.56,2104.64 "/>
   <polygon class="fil3" points="1178.71,1938.13 896.11,1938.13 896.11,2104.64 1246.7,2104.64 "/>
  </g>
 </g>
</svg>
